# xmcd CD database file
#
# Track frame offsets:
#	150
#	20950
#	45746
#	72774
#	110652
#	133298
#	158993
#	185767
#	220910
#	235809
#
# Disc length: 3354 seconds
#
# Revision: 0
# Processed by: cddbd v1.5.2PL0 Copyright (c) Steve Scherf et al.
# Submitted via: CDex 1.51
#
DISCID=9a0d180a
DTITLE=Fada - Soleil Noir
DYEAR=2007
DGENRE=Jazz
TTITLE0=L'Homme Crocodile
TTITLE1=Pensées Nocturnes
TTITLE2=Freakland
TTITLE3=Soleil Noir
TTITLE4=Toussaint
TTITLE5=La Femme Née Des Vagues
TTITLE6=Conflit
TTITLE7=Le Fou
TTITLE8=Bich'n
TTITLE9=Bich'n La Revolution
EXTD=YEAR: 2007
EXTT0=
EXTT1=
EXTT2=
EXTT3=
EXTT4=
EXTT5=
EXTT6=
EXTT7=
EXTT8=
EXTT9=
PLAYORDER=
